<?xml version="1.0" encoding="utf-8"?>
<!-- Generator: Adobe Illustrator 27.8.0, SVG Export Plug-In . SVG Version: 6.00 Build 0)  -->
<svg version="1.1" id="Camada_1" xmlns="http://www.w3.org/2000/svg" xmlns:xlink="http://www.w3.org/1999/xlink" x="0px" y="0px"
	 viewBox="0 0 512 512" style="enable-background:new 0 0 512 512;" xml:space="preserve">
<style type="text/css">
	.st0{fill:#515151;}
	.st1{fill:#25A3FE;}
</style>
<g>
	<g>
		<g>
			<path class="st0" d="M184.8,222.6c5.8-4,9.8-6,11.9-6c2.1,0,5.4,1.9,9.7,5.7c4.4,3.8,7.1,6.5,8.2,8.1c1.1,1.6,1.6,3.6,1.6,6.2
				c0,4.9-0.4,7.9-1.2,8.8c-1.5,2.3-3.9,5-7.1,8.2c4.4,4.2,7.2,7.4,8.3,9.7c0.6,1.5,1.2,6.2,1.9,13.9c0.7,7.7,1,13.4,1,17h-16.3
				c0-3.3-0.3-8.4-0.9-15.4c-0.6-7-1.2-11.2-1.9-12.6c-0.7-1.5-1.5-2.7-2.5-3.8h-9.7v31.8h-15v-47.7c0-5.9-0.4-10-1.3-12.3
				c-0.8-2.3-2.6-5.1-5.3-8.4l13.1-9.2C181.7,218.1,183.5,220.1,184.8,222.6z M187.9,241.2v8.4h4.2c1,0,2.3-0.8,3.9-2.4
				c1.6-1.6,2.6-3,3.1-4.1c0.5-1.1,0.7-2.3,0.7-3.5c0-1.2-0.2-2.3-0.7-3.3c-0.5-1-1.1-2.1-2-3.3c-0.9-1.2-1.6-1.9-2.2-1.9
				c-2,0-4.4,0.5-7.4,1.4C187.8,235.3,187.9,238.2,187.9,241.2z"/>
			<path class="st0" d="M243.8,247.7h19.5v13.2h-19.5v20h26v13.2h-41.1V227l15-10.5h24.3v13.3h-20.3l-4,2.8V247.7z"/>
			<path class="st0" d="M277.5,217.9h15v42.4c0,4.1,0.2,7.1,0.7,9.2c0.5,2.1,1.5,4.3,3.2,6.8c1.7,2.4,2.9,3.6,3.6,3.6
				s1.9-1.2,3.6-3.6c1.7-2.4,2.7-4.7,3.2-6.8c0.5-2.1,0.7-5.1,0.7-9.2v-12.7c0-6.1-0.4-10.3-1.3-12.7c-0.8-2.4-2.6-5.3-5.3-8.8
				l13.1-9.4c2.3,1.5,4.3,4.5,6,8.9c1.7,4.4,2.5,9.6,2.5,15.7v18c0,5.7-0.5,10.3-1.6,13.9c-1.1,3.6-4.2,8.3-9.3,13.9
				c-5.1,5.6-9,8.4-11.6,8.4s-6.5-2.8-11.6-8.4c-5.1-5.6-8.2-10.3-9.3-13.9s-1.6-8.3-1.6-13.9V217.9z"/>
			<path class="st0" d="M346.8,247.7h19.5v13.2h-19.5v20h26v13.2h-41.1V227l15-10.5h24.3v13.3h-20.3l-4,2.8V247.7z"/>
			<path class="st0" d="M417,281.1v13.1h-39.8v-76.3h15v63.2H417z"/>
			<path class="st0" d="M424.2,294.1v-76.3h15v76.3H424.2z"/>
			<path class="st0" d="M461.5,223.6c5.2-4.7,9.1-7.1,11.8-7.1c2.7,0,6.6,2.4,11.8,7.1s8.4,8.6,9.6,11.7c0.8,2.1,1.2,6.9,1.2,14.3
				v44.6h-15v-16.3h-15v16.3h-15v-44.6c0-7.4,0.4-12.2,1.2-14.3C453.2,232.3,456.4,228.4,461.5,223.6z M465.8,249.6v15.1h15v-15.1
				c0-6-0.3-9.6-0.9-10.9c-0.6-1.3-1.6-2.8-3-4.2c-1.4-1.5-2.6-2.2-3.6-2.2c-1,0-2.2,0.7-3.6,2.2c-1.4,1.5-2.4,2.9-3,4.2
				C466.1,240,465.8,243.6,465.8,249.6z"/>
		</g>
		<g>
			<path class="st0" d="M126.9,258c0,26.1-21.2,47.3-47.3,47.3c-26.1,0-47.3-21.2-47.3-47.3H16.2c0,34.8,28.6,63.4,63.4,63.4
				c34.8,0,63.4-28.6,63.4-63.4H126.9z"/>
			<path class="st0" d="M40.2,256.3c0,21.7,17.6,39.4,39.4,39.4c21.7,0,39.4-17.6,39.4-39.4c0-6-1.3-11.6-3.7-16.7l22.1-22.1
				l-12.6-12.6L104,225.5c-4.5-3.6-9.8-6.2-15.5-7.5v-27.4H70.7V218c-5.8,1.3-11.1,3.9-15.5,7.5l-20.6-20.6l-12.6,12.6L44,239.6
				C41.6,244.7,40.2,250.3,40.2,256.3z M79.6,236.5c11,0,19.9,8.9,19.9,19.9s-8.9,19.9-19.9,19.9s-19.9-8.9-19.9-19.9
				S68.6,236.5,79.6,236.5z"/>
		</g>
	</g>
</g>
</svg>
